<?xml version="1.0" standalone="no"?>
<!DOCTYPE svg PUBLIC "-//W3C//DTD SVG 20010904//EN"
 "http://www.w3.org/TR/2001/REC-SVG-20010904/DTD/svg10.dtd">
<svg version="1.0" xmlns="http://www.w3.org/2000/svg"
 width="512.000000pt" height="512.000000pt" viewBox="0 0 512.000000 512.000000"
 preserveAspectRatio="xMidYMid meet">
<metadata>
Created by potrace 1.14, written by Peter Selinger 2001-2017
</metadata>
<g transform="translate(0.000000,512.000000) scale(0.100000,-0.100000)"
fill="#000000" stroke="none">
<path d="M658 4669 c-81 -13 -162 -78 -195 -158 -22 -52 -20 -148 4 -202 45
-98 130 -153 238 -153 110 0 186 48 241 154 26 51 24 162 -4 216 -56 109 -162
162 -284 143z"/>
<path d="M2400 4671 c-75 -24 -146 -88 -175 -157 -21 -51 -19 -159 4 -209 92
-199 371 -206 476 -13 70 129 17 291 -118 360 -45 22 -145 33 -187 19z"/>
<path d="M3032 3417 c-14 -15 -205 -542 -541 -1494 -286 -810 -528 -1495 -537
-1523 -26 -79 3 -130 75 -130 42 0 60 9 75 39 33 62 1069 3019 1070 3050 0 69
-95 108 -142 58z"/>
<path d="M1238 2332 c-520 -520 -528 -528 -528 -567 0 -39 8 -47 543 -582 498
-499 545 -543 575 -543 46 0 92 46 92 91 0 31 -42 75 -500 534 l-500 500 485
485 c469 469 485 487 485 523 0 52 -35 87 -87 87 -37 0 -54 -17 -565 -528z"/>
<path d="M3255 2835 c-18 -17 -25 -35 -25 -62 0 -36 17 -54 485 -523 l485
-485 -495 -495 c-325 -325 -496 -503 -500 -520 -13 -60 45 -118 104 -105 18 4
195 174 564 543 529 529 537 538 537 577 0 39 -8 48 -528 567 -511 511 -528
528 -565 528 -27 0 -45 -7 -62 -25z"/>
</g>
</svg>
